%TF.GenerationSoftware,KiCad,Pcbnew,9.0.0*%
%TF.CreationDate,2025-03-05T17:01:48+13:00*%
%TF.ProjectId,SOIC-24_to_DIP-24_adapter,534f4943-2d32-4345-9f74-6f5f4449502d,rev?*%
%TF.SameCoordinates,Original*%
%TF.FileFunction,Drillmap*%
%TF.FilePolarity,Positive*%
%FSLAX45Y45*%
G04 Gerber Fmt 4.5, Leading zero omitted, Abs format (unit mm)*
G04 Created by KiCad (PCBNEW 9.0.0) date 2025-03-05 17:01:48*
%MOMM*%
%LPD*%
G01*
G04 APERTURE LIST*
%ADD10C,0.100000*%
%ADD11C,0.200000*%
G04 APERTURE END LIST*
D10*
X16245000Y-11700000D02*
X14300000Y-11700000D01*
X16245000Y-8450000D02*
X16245000Y-11700000D01*
X15372500Y-8450000D02*
G75*
G02*
X15172500Y-8450000I-100000J0D01*
G01*
X15172500Y-8450000D02*
X14300000Y-8450000D01*
X16245000Y-8450000D02*
X15372500Y-8450000D01*
X14300000Y-11700000D02*
X14300000Y-8450000D01*
D11*
D10*
X15083500Y-10737764D02*
X15113500Y-10767764D01*
X15113500Y-10737764D02*
X15083500Y-10767764D01*
X15085000Y-10485000D02*
X15115000Y-10515000D01*
X15115000Y-10485000D02*
X15085000Y-10515000D01*
X15093346Y-9698243D02*
X15123346Y-9728243D01*
X15123346Y-9698243D02*
X15093346Y-9728243D01*
X15095705Y-9533130D02*
X15125705Y-9563130D01*
X15125705Y-9533130D02*
X15095705Y-9563130D01*
X15442442Y-9530771D02*
X15472442Y-9560771D01*
X15472442Y-9530771D02*
X15442442Y-9560771D01*
X15445000Y-9702960D02*
X15475000Y-9732960D01*
X15475000Y-9702960D02*
X15445000Y-9732960D01*
X15454500Y-10736368D02*
X15484500Y-10766368D01*
X15484500Y-10736368D02*
X15454500Y-10766368D01*
X15460000Y-10485000D02*
X15490000Y-10515000D01*
X15490000Y-10485000D02*
X15460000Y-10515000D01*
X14559400Y-8677500D02*
G75*
G02*
X14459400Y-8677500I-50000J0D01*
G01*
X14459400Y-8677500D02*
G75*
G02*
X14559400Y-8677500I50000J0D01*
G01*
X14559400Y-8931500D02*
G75*
G02*
X14459400Y-8931500I-50000J0D01*
G01*
X14459400Y-8931500D02*
G75*
G02*
X14559400Y-8931500I50000J0D01*
G01*
X14559400Y-9185500D02*
G75*
G02*
X14459400Y-9185500I-50000J0D01*
G01*
X14459400Y-9185500D02*
G75*
G02*
X14559400Y-9185500I50000J0D01*
G01*
X14559400Y-9439500D02*
G75*
G02*
X14459400Y-9439500I-50000J0D01*
G01*
X14459400Y-9439500D02*
G75*
G02*
X14559400Y-9439500I50000J0D01*
G01*
X14559400Y-9693500D02*
G75*
G02*
X14459400Y-9693500I-50000J0D01*
G01*
X14459400Y-9693500D02*
G75*
G02*
X14559400Y-9693500I50000J0D01*
G01*
X14559400Y-9947500D02*
G75*
G02*
X14459400Y-9947500I-50000J0D01*
G01*
X14459400Y-9947500D02*
G75*
G02*
X14559400Y-9947500I50000J0D01*
G01*
X14559400Y-10201500D02*
G75*
G02*
X14459400Y-10201500I-50000J0D01*
G01*
X14459400Y-10201500D02*
G75*
G02*
X14559400Y-10201500I50000J0D01*
G01*
X14559400Y-10455500D02*
G75*
G02*
X14459400Y-10455500I-50000J0D01*
G01*
X14459400Y-10455500D02*
G75*
G02*
X14559400Y-10455500I50000J0D01*
G01*
X14559400Y-10709500D02*
G75*
G02*
X14459400Y-10709500I-50000J0D01*
G01*
X14459400Y-10709500D02*
G75*
G02*
X14559400Y-10709500I50000J0D01*
G01*
X14559400Y-10963500D02*
G75*
G02*
X14459400Y-10963500I-50000J0D01*
G01*
X14459400Y-10963500D02*
G75*
G02*
X14559400Y-10963500I50000J0D01*
G01*
X14559400Y-11217500D02*
G75*
G02*
X14459400Y-11217500I-50000J0D01*
G01*
X14459400Y-11217500D02*
G75*
G02*
X14559400Y-11217500I50000J0D01*
G01*
X14559400Y-11471500D02*
G75*
G02*
X14459400Y-11471500I-50000J0D01*
G01*
X14459400Y-11471500D02*
G75*
G02*
X14559400Y-11471500I50000J0D01*
G01*
X16083536Y-8678500D02*
G75*
G02*
X15983536Y-8678500I-50000J0D01*
G01*
X15983536Y-8678500D02*
G75*
G02*
X16083536Y-8678500I50000J0D01*
G01*
X16083536Y-8932500D02*
G75*
G02*
X15983536Y-8932500I-50000J0D01*
G01*
X15983536Y-8932500D02*
G75*
G02*
X16083536Y-8932500I50000J0D01*
G01*
X16083536Y-9186500D02*
G75*
G02*
X15983536Y-9186500I-50000J0D01*
G01*
X15983536Y-9186500D02*
G75*
G02*
X16083536Y-9186500I50000J0D01*
G01*
X16083536Y-9440500D02*
G75*
G02*
X15983536Y-9440500I-50000J0D01*
G01*
X15983536Y-9440500D02*
G75*
G02*
X16083536Y-9440500I50000J0D01*
G01*
X16083536Y-9694500D02*
G75*
G02*
X15983536Y-9694500I-50000J0D01*
G01*
X15983536Y-9694500D02*
G75*
G02*
X16083536Y-9694500I50000J0D01*
G01*
X16083536Y-9948500D02*
G75*
G02*
X15983536Y-9948500I-50000J0D01*
G01*
X15983536Y-9948500D02*
G75*
G02*
X16083536Y-9948500I50000J0D01*
G01*
X16083536Y-10202500D02*
G75*
G02*
X15983536Y-10202500I-50000J0D01*
G01*
X15983536Y-10202500D02*
G75*
G02*
X16083536Y-10202500I50000J0D01*
G01*
X16083536Y-10456500D02*
G75*
G02*
X15983536Y-10456500I-50000J0D01*
G01*
X15983536Y-10456500D02*
G75*
G02*
X16083536Y-10456500I50000J0D01*
G01*
X16083536Y-10710500D02*
G75*
G02*
X15983536Y-10710500I-50000J0D01*
G01*
X15983536Y-10710500D02*
G75*
G02*
X16083536Y-10710500I50000J0D01*
G01*
X16083536Y-10964500D02*
G75*
G02*
X15983536Y-10964500I-50000J0D01*
G01*
X15983536Y-10964500D02*
G75*
G02*
X16083536Y-10964500I50000J0D01*
G01*
X16083536Y-11218500D02*
G75*
G02*
X15983536Y-11218500I-50000J0D01*
G01*
X15983536Y-11218500D02*
G75*
G02*
X16083536Y-11218500I50000J0D01*
G01*
X16083536Y-11472500D02*
G75*
G02*
X15983536Y-11472500I-50000J0D01*
G01*
X15983536Y-11472500D02*
G75*
G02*
X16083536Y-11472500I50000J0D01*
G01*
D11*
X13352217Y-12016484D02*
X13352217Y-11816484D01*
X13352217Y-11816484D02*
X13399836Y-11816484D01*
X13399836Y-11816484D02*
X13428407Y-11826008D01*
X13428407Y-11826008D02*
X13447455Y-11845055D01*
X13447455Y-11845055D02*
X13456979Y-11864103D01*
X13456979Y-11864103D02*
X13466503Y-11902198D01*
X13466503Y-11902198D02*
X13466503Y-11930769D01*
X13466503Y-11930769D02*
X13456979Y-11968865D01*
X13456979Y-11968865D02*
X13447455Y-11987912D01*
X13447455Y-11987912D02*
X13428407Y-12006960D01*
X13428407Y-12006960D02*
X13399836Y-12016484D01*
X13399836Y-12016484D02*
X13352217Y-12016484D01*
X13552217Y-12016484D02*
X13552217Y-11883150D01*
X13552217Y-11921246D02*
X13561741Y-11902198D01*
X13561741Y-11902198D02*
X13571265Y-11892674D01*
X13571265Y-11892674D02*
X13590312Y-11883150D01*
X13590312Y-11883150D02*
X13609360Y-11883150D01*
X13676026Y-12016484D02*
X13676026Y-11883150D01*
X13676026Y-11816484D02*
X13666503Y-11826008D01*
X13666503Y-11826008D02*
X13676026Y-11835531D01*
X13676026Y-11835531D02*
X13685550Y-11826008D01*
X13685550Y-11826008D02*
X13676026Y-11816484D01*
X13676026Y-11816484D02*
X13676026Y-11835531D01*
X13799836Y-12016484D02*
X13780788Y-12006960D01*
X13780788Y-12006960D02*
X13771265Y-11987912D01*
X13771265Y-11987912D02*
X13771265Y-11816484D01*
X13904598Y-12016484D02*
X13885550Y-12006960D01*
X13885550Y-12006960D02*
X13876026Y-11987912D01*
X13876026Y-11987912D02*
X13876026Y-11816484D01*
X14133169Y-12016484D02*
X14133169Y-11816484D01*
X14133169Y-11816484D02*
X14199836Y-11959341D01*
X14199836Y-11959341D02*
X14266503Y-11816484D01*
X14266503Y-11816484D02*
X14266503Y-12016484D01*
X14447455Y-12016484D02*
X14447455Y-11911722D01*
X14447455Y-11911722D02*
X14437931Y-11892674D01*
X14437931Y-11892674D02*
X14418884Y-11883150D01*
X14418884Y-11883150D02*
X14380788Y-11883150D01*
X14380788Y-11883150D02*
X14361741Y-11892674D01*
X14447455Y-12006960D02*
X14428407Y-12016484D01*
X14428407Y-12016484D02*
X14380788Y-12016484D01*
X14380788Y-12016484D02*
X14361741Y-12006960D01*
X14361741Y-12006960D02*
X14352217Y-11987912D01*
X14352217Y-11987912D02*
X14352217Y-11968865D01*
X14352217Y-11968865D02*
X14361741Y-11949817D01*
X14361741Y-11949817D02*
X14380788Y-11940293D01*
X14380788Y-11940293D02*
X14428407Y-11940293D01*
X14428407Y-11940293D02*
X14447455Y-11930769D01*
X14542693Y-11883150D02*
X14542693Y-12083150D01*
X14542693Y-11892674D02*
X14561741Y-11883150D01*
X14561741Y-11883150D02*
X14599836Y-11883150D01*
X14599836Y-11883150D02*
X14618884Y-11892674D01*
X14618884Y-11892674D02*
X14628407Y-11902198D01*
X14628407Y-11902198D02*
X14637931Y-11921246D01*
X14637931Y-11921246D02*
X14637931Y-11978388D01*
X14637931Y-11978388D02*
X14628407Y-11997436D01*
X14628407Y-11997436D02*
X14618884Y-12006960D01*
X14618884Y-12006960D02*
X14599836Y-12016484D01*
X14599836Y-12016484D02*
X14561741Y-12016484D01*
X14561741Y-12016484D02*
X14542693Y-12006960D01*
X14723646Y-11997436D02*
X14733169Y-12006960D01*
X14733169Y-12006960D02*
X14723646Y-12016484D01*
X14723646Y-12016484D02*
X14714122Y-12006960D01*
X14714122Y-12006960D02*
X14723646Y-11997436D01*
X14723646Y-11997436D02*
X14723646Y-12016484D01*
X14723646Y-11892674D02*
X14733169Y-11902198D01*
X14733169Y-11902198D02*
X14723646Y-11911722D01*
X14723646Y-11911722D02*
X14714122Y-11902198D01*
X14714122Y-11902198D02*
X14723646Y-11892674D01*
X14723646Y-11892674D02*
X14723646Y-11911722D01*
D10*
X13061440Y-12330000D02*
X13091440Y-12360000D01*
X13091440Y-12330000D02*
X13061440Y-12360000D01*
D11*
X13390312Y-12236484D02*
X13409360Y-12236484D01*
X13409360Y-12236484D02*
X13428407Y-12246008D01*
X13428407Y-12246008D02*
X13437931Y-12255531D01*
X13437931Y-12255531D02*
X13447455Y-12274579D01*
X13447455Y-12274579D02*
X13456979Y-12312674D01*
X13456979Y-12312674D02*
X13456979Y-12360293D01*
X13456979Y-12360293D02*
X13447455Y-12398388D01*
X13447455Y-12398388D02*
X13437931Y-12417436D01*
X13437931Y-12417436D02*
X13428407Y-12426960D01*
X13428407Y-12426960D02*
X13409360Y-12436484D01*
X13409360Y-12436484D02*
X13390312Y-12436484D01*
X13390312Y-12436484D02*
X13371265Y-12426960D01*
X13371265Y-12426960D02*
X13361741Y-12417436D01*
X13361741Y-12417436D02*
X13352217Y-12398388D01*
X13352217Y-12398388D02*
X13342693Y-12360293D01*
X13342693Y-12360293D02*
X13342693Y-12312674D01*
X13342693Y-12312674D02*
X13352217Y-12274579D01*
X13352217Y-12274579D02*
X13361741Y-12255531D01*
X13361741Y-12255531D02*
X13371265Y-12246008D01*
X13371265Y-12246008D02*
X13390312Y-12236484D01*
X13542693Y-12417436D02*
X13552217Y-12426960D01*
X13552217Y-12426960D02*
X13542693Y-12436484D01*
X13542693Y-12436484D02*
X13533169Y-12426960D01*
X13533169Y-12426960D02*
X13542693Y-12417436D01*
X13542693Y-12417436D02*
X13542693Y-12436484D01*
X13618884Y-12236484D02*
X13742693Y-12236484D01*
X13742693Y-12236484D02*
X13676026Y-12312674D01*
X13676026Y-12312674D02*
X13704598Y-12312674D01*
X13704598Y-12312674D02*
X13723646Y-12322198D01*
X13723646Y-12322198D02*
X13733169Y-12331722D01*
X13733169Y-12331722D02*
X13742693Y-12350769D01*
X13742693Y-12350769D02*
X13742693Y-12398388D01*
X13742693Y-12398388D02*
X13733169Y-12417436D01*
X13733169Y-12417436D02*
X13723646Y-12426960D01*
X13723646Y-12426960D02*
X13704598Y-12436484D01*
X13704598Y-12436484D02*
X13647455Y-12436484D01*
X13647455Y-12436484D02*
X13628407Y-12426960D01*
X13628407Y-12426960D02*
X13618884Y-12417436D01*
X13866503Y-12236484D02*
X13885550Y-12236484D01*
X13885550Y-12236484D02*
X13904598Y-12246008D01*
X13904598Y-12246008D02*
X13914122Y-12255531D01*
X13914122Y-12255531D02*
X13923646Y-12274579D01*
X13923646Y-12274579D02*
X13933169Y-12312674D01*
X13933169Y-12312674D02*
X13933169Y-12360293D01*
X13933169Y-12360293D02*
X13923646Y-12398388D01*
X13923646Y-12398388D02*
X13914122Y-12417436D01*
X13914122Y-12417436D02*
X13904598Y-12426960D01*
X13904598Y-12426960D02*
X13885550Y-12436484D01*
X13885550Y-12436484D02*
X13866503Y-12436484D01*
X13866503Y-12436484D02*
X13847455Y-12426960D01*
X13847455Y-12426960D02*
X13837931Y-12417436D01*
X13837931Y-12417436D02*
X13828407Y-12398388D01*
X13828407Y-12398388D02*
X13818884Y-12360293D01*
X13818884Y-12360293D02*
X13818884Y-12312674D01*
X13818884Y-12312674D02*
X13828407Y-12274579D01*
X13828407Y-12274579D02*
X13837931Y-12255531D01*
X13837931Y-12255531D02*
X13847455Y-12246008D01*
X13847455Y-12246008D02*
X13866503Y-12236484D01*
X14056979Y-12236484D02*
X14076027Y-12236484D01*
X14076027Y-12236484D02*
X14095074Y-12246008D01*
X14095074Y-12246008D02*
X14104598Y-12255531D01*
X14104598Y-12255531D02*
X14114122Y-12274579D01*
X14114122Y-12274579D02*
X14123646Y-12312674D01*
X14123646Y-12312674D02*
X14123646Y-12360293D01*
X14123646Y-12360293D02*
X14114122Y-12398388D01*
X14114122Y-12398388D02*
X14104598Y-12417436D01*
X14104598Y-12417436D02*
X14095074Y-12426960D01*
X14095074Y-12426960D02*
X14076027Y-12436484D01*
X14076027Y-12436484D02*
X14056979Y-12436484D01*
X14056979Y-12436484D02*
X14037931Y-12426960D01*
X14037931Y-12426960D02*
X14028407Y-12417436D01*
X14028407Y-12417436D02*
X14018884Y-12398388D01*
X14018884Y-12398388D02*
X14009360Y-12360293D01*
X14009360Y-12360293D02*
X14009360Y-12312674D01*
X14009360Y-12312674D02*
X14018884Y-12274579D01*
X14018884Y-12274579D02*
X14028407Y-12255531D01*
X14028407Y-12255531D02*
X14037931Y-12246008D01*
X14037931Y-12246008D02*
X14056979Y-12236484D01*
X14209360Y-12436484D02*
X14209360Y-12303150D01*
X14209360Y-12322198D02*
X14218884Y-12312674D01*
X14218884Y-12312674D02*
X14237931Y-12303150D01*
X14237931Y-12303150D02*
X14266503Y-12303150D01*
X14266503Y-12303150D02*
X14285550Y-12312674D01*
X14285550Y-12312674D02*
X14295074Y-12331722D01*
X14295074Y-12331722D02*
X14295074Y-12436484D01*
X14295074Y-12331722D02*
X14304598Y-12312674D01*
X14304598Y-12312674D02*
X14323646Y-12303150D01*
X14323646Y-12303150D02*
X14352217Y-12303150D01*
X14352217Y-12303150D02*
X14371265Y-12312674D01*
X14371265Y-12312674D02*
X14380788Y-12331722D01*
X14380788Y-12331722D02*
X14380788Y-12436484D01*
X14476027Y-12436484D02*
X14476027Y-12303150D01*
X14476027Y-12322198D02*
X14485550Y-12312674D01*
X14485550Y-12312674D02*
X14504598Y-12303150D01*
X14504598Y-12303150D02*
X14533169Y-12303150D01*
X14533169Y-12303150D02*
X14552217Y-12312674D01*
X14552217Y-12312674D02*
X14561741Y-12331722D01*
X14561741Y-12331722D02*
X14561741Y-12436484D01*
X14561741Y-12331722D02*
X14571265Y-12312674D01*
X14571265Y-12312674D02*
X14590312Y-12303150D01*
X14590312Y-12303150D02*
X14618884Y-12303150D01*
X14618884Y-12303150D02*
X14637931Y-12312674D01*
X14637931Y-12312674D02*
X14647455Y-12331722D01*
X14647455Y-12331722D02*
X14647455Y-12436484D01*
X15037931Y-12226960D02*
X14866503Y-12484103D01*
X15295074Y-12236484D02*
X15314122Y-12236484D01*
X15314122Y-12236484D02*
X15333170Y-12246008D01*
X15333170Y-12246008D02*
X15342693Y-12255531D01*
X15342693Y-12255531D02*
X15352217Y-12274579D01*
X15352217Y-12274579D02*
X15361741Y-12312674D01*
X15361741Y-12312674D02*
X15361741Y-12360293D01*
X15361741Y-12360293D02*
X15352217Y-12398388D01*
X15352217Y-12398388D02*
X15342693Y-12417436D01*
X15342693Y-12417436D02*
X15333170Y-12426960D01*
X15333170Y-12426960D02*
X15314122Y-12436484D01*
X15314122Y-12436484D02*
X15295074Y-12436484D01*
X15295074Y-12436484D02*
X15276027Y-12426960D01*
X15276027Y-12426960D02*
X15266503Y-12417436D01*
X15266503Y-12417436D02*
X15256979Y-12398388D01*
X15256979Y-12398388D02*
X15247455Y-12360293D01*
X15247455Y-12360293D02*
X15247455Y-12312674D01*
X15247455Y-12312674D02*
X15256979Y-12274579D01*
X15256979Y-12274579D02*
X15266503Y-12255531D01*
X15266503Y-12255531D02*
X15276027Y-12246008D01*
X15276027Y-12246008D02*
X15295074Y-12236484D01*
X15447455Y-12417436D02*
X15456979Y-12426960D01*
X15456979Y-12426960D02*
X15447455Y-12436484D01*
X15447455Y-12436484D02*
X15437931Y-12426960D01*
X15437931Y-12426960D02*
X15447455Y-12417436D01*
X15447455Y-12417436D02*
X15447455Y-12436484D01*
X15580789Y-12236484D02*
X15599836Y-12236484D01*
X15599836Y-12236484D02*
X15618884Y-12246008D01*
X15618884Y-12246008D02*
X15628408Y-12255531D01*
X15628408Y-12255531D02*
X15637931Y-12274579D01*
X15637931Y-12274579D02*
X15647455Y-12312674D01*
X15647455Y-12312674D02*
X15647455Y-12360293D01*
X15647455Y-12360293D02*
X15637931Y-12398388D01*
X15637931Y-12398388D02*
X15628408Y-12417436D01*
X15628408Y-12417436D02*
X15618884Y-12426960D01*
X15618884Y-12426960D02*
X15599836Y-12436484D01*
X15599836Y-12436484D02*
X15580789Y-12436484D01*
X15580789Y-12436484D02*
X15561741Y-12426960D01*
X15561741Y-12426960D02*
X15552217Y-12417436D01*
X15552217Y-12417436D02*
X15542693Y-12398388D01*
X15542693Y-12398388D02*
X15533170Y-12360293D01*
X15533170Y-12360293D02*
X15533170Y-12312674D01*
X15533170Y-12312674D02*
X15542693Y-12274579D01*
X15542693Y-12274579D02*
X15552217Y-12255531D01*
X15552217Y-12255531D02*
X15561741Y-12246008D01*
X15561741Y-12246008D02*
X15580789Y-12236484D01*
X15837931Y-12436484D02*
X15723646Y-12436484D01*
X15780789Y-12436484D02*
X15780789Y-12236484D01*
X15780789Y-12236484D02*
X15761741Y-12265055D01*
X15761741Y-12265055D02*
X15742693Y-12284103D01*
X15742693Y-12284103D02*
X15723646Y-12293627D01*
X16028408Y-12436484D02*
X15914122Y-12436484D01*
X15971265Y-12436484D02*
X15971265Y-12236484D01*
X15971265Y-12236484D02*
X15952217Y-12265055D01*
X15952217Y-12265055D02*
X15933170Y-12284103D01*
X15933170Y-12284103D02*
X15914122Y-12293627D01*
X16142693Y-12322198D02*
X16123646Y-12312674D01*
X16123646Y-12312674D02*
X16114122Y-12303150D01*
X16114122Y-12303150D02*
X16104598Y-12284103D01*
X16104598Y-12284103D02*
X16104598Y-12274579D01*
X16104598Y-12274579D02*
X16114122Y-12255531D01*
X16114122Y-12255531D02*
X16123646Y-12246008D01*
X16123646Y-12246008D02*
X16142693Y-12236484D01*
X16142693Y-12236484D02*
X16180789Y-12236484D01*
X16180789Y-12236484D02*
X16199836Y-12246008D01*
X16199836Y-12246008D02*
X16209360Y-12255531D01*
X16209360Y-12255531D02*
X16218884Y-12274579D01*
X16218884Y-12274579D02*
X16218884Y-12284103D01*
X16218884Y-12284103D02*
X16209360Y-12303150D01*
X16209360Y-12303150D02*
X16199836Y-12312674D01*
X16199836Y-12312674D02*
X16180789Y-12322198D01*
X16180789Y-12322198D02*
X16142693Y-12322198D01*
X16142693Y-12322198D02*
X16123646Y-12331722D01*
X16123646Y-12331722D02*
X16114122Y-12341246D01*
X16114122Y-12341246D02*
X16104598Y-12360293D01*
X16104598Y-12360293D02*
X16104598Y-12398388D01*
X16104598Y-12398388D02*
X16114122Y-12417436D01*
X16114122Y-12417436D02*
X16123646Y-12426960D01*
X16123646Y-12426960D02*
X16142693Y-12436484D01*
X16142693Y-12436484D02*
X16180789Y-12436484D01*
X16180789Y-12436484D02*
X16199836Y-12426960D01*
X16199836Y-12426960D02*
X16209360Y-12417436D01*
X16209360Y-12417436D02*
X16218884Y-12398388D01*
X16218884Y-12398388D02*
X16218884Y-12360293D01*
X16218884Y-12360293D02*
X16209360Y-12341246D01*
X16209360Y-12341246D02*
X16199836Y-12331722D01*
X16199836Y-12331722D02*
X16180789Y-12322198D01*
X16295074Y-12236484D02*
X16295074Y-12274579D01*
X16371265Y-12236484D02*
X16371265Y-12274579D01*
X16666503Y-12512674D02*
X16656979Y-12503150D01*
X16656979Y-12503150D02*
X16637932Y-12474579D01*
X16637932Y-12474579D02*
X16628408Y-12455531D01*
X16628408Y-12455531D02*
X16618884Y-12426960D01*
X16618884Y-12426960D02*
X16609360Y-12379341D01*
X16609360Y-12379341D02*
X16609360Y-12341246D01*
X16609360Y-12341246D02*
X16618884Y-12293627D01*
X16618884Y-12293627D02*
X16628408Y-12265055D01*
X16628408Y-12265055D02*
X16637932Y-12246008D01*
X16637932Y-12246008D02*
X16656979Y-12217436D01*
X16656979Y-12217436D02*
X16666503Y-12207912D01*
X16771265Y-12322198D02*
X16752217Y-12312674D01*
X16752217Y-12312674D02*
X16742693Y-12303150D01*
X16742693Y-12303150D02*
X16733170Y-12284103D01*
X16733170Y-12284103D02*
X16733170Y-12274579D01*
X16733170Y-12274579D02*
X16742693Y-12255531D01*
X16742693Y-12255531D02*
X16752217Y-12246008D01*
X16752217Y-12246008D02*
X16771265Y-12236484D01*
X16771265Y-12236484D02*
X16809360Y-12236484D01*
X16809360Y-12236484D02*
X16828408Y-12246008D01*
X16828408Y-12246008D02*
X16837932Y-12255531D01*
X16837932Y-12255531D02*
X16847455Y-12274579D01*
X16847455Y-12274579D02*
X16847455Y-12284103D01*
X16847455Y-12284103D02*
X16837932Y-12303150D01*
X16837932Y-12303150D02*
X16828408Y-12312674D01*
X16828408Y-12312674D02*
X16809360Y-12322198D01*
X16809360Y-12322198D02*
X16771265Y-12322198D01*
X16771265Y-12322198D02*
X16752217Y-12331722D01*
X16752217Y-12331722D02*
X16742693Y-12341246D01*
X16742693Y-12341246D02*
X16733170Y-12360293D01*
X16733170Y-12360293D02*
X16733170Y-12398388D01*
X16733170Y-12398388D02*
X16742693Y-12417436D01*
X16742693Y-12417436D02*
X16752217Y-12426960D01*
X16752217Y-12426960D02*
X16771265Y-12436484D01*
X16771265Y-12436484D02*
X16809360Y-12436484D01*
X16809360Y-12436484D02*
X16828408Y-12426960D01*
X16828408Y-12426960D02*
X16837932Y-12417436D01*
X16837932Y-12417436D02*
X16847455Y-12398388D01*
X16847455Y-12398388D02*
X16847455Y-12360293D01*
X16847455Y-12360293D02*
X16837932Y-12341246D01*
X16837932Y-12341246D02*
X16828408Y-12331722D01*
X16828408Y-12331722D02*
X16809360Y-12322198D01*
X17085551Y-12436484D02*
X17085551Y-12236484D01*
X17171265Y-12436484D02*
X17171265Y-12331722D01*
X17171265Y-12331722D02*
X17161741Y-12312674D01*
X17161741Y-12312674D02*
X17142694Y-12303150D01*
X17142694Y-12303150D02*
X17114122Y-12303150D01*
X17114122Y-12303150D02*
X17095075Y-12312674D01*
X17095075Y-12312674D02*
X17085551Y-12322198D01*
X17295075Y-12436484D02*
X17276027Y-12426960D01*
X17276027Y-12426960D02*
X17266503Y-12417436D01*
X17266503Y-12417436D02*
X17256979Y-12398388D01*
X17256979Y-12398388D02*
X17256979Y-12341246D01*
X17256979Y-12341246D02*
X17266503Y-12322198D01*
X17266503Y-12322198D02*
X17276027Y-12312674D01*
X17276027Y-12312674D02*
X17295075Y-12303150D01*
X17295075Y-12303150D02*
X17323646Y-12303150D01*
X17323646Y-12303150D02*
X17342694Y-12312674D01*
X17342694Y-12312674D02*
X17352217Y-12322198D01*
X17352217Y-12322198D02*
X17361741Y-12341246D01*
X17361741Y-12341246D02*
X17361741Y-12398388D01*
X17361741Y-12398388D02*
X17352217Y-12417436D01*
X17352217Y-12417436D02*
X17342694Y-12426960D01*
X17342694Y-12426960D02*
X17323646Y-12436484D01*
X17323646Y-12436484D02*
X17295075Y-12436484D01*
X17476027Y-12436484D02*
X17456979Y-12426960D01*
X17456979Y-12426960D02*
X17447456Y-12407912D01*
X17447456Y-12407912D02*
X17447456Y-12236484D01*
X17628408Y-12426960D02*
X17609360Y-12436484D01*
X17609360Y-12436484D02*
X17571265Y-12436484D01*
X17571265Y-12436484D02*
X17552217Y-12426960D01*
X17552217Y-12426960D02*
X17542694Y-12407912D01*
X17542694Y-12407912D02*
X17542694Y-12331722D01*
X17542694Y-12331722D02*
X17552217Y-12312674D01*
X17552217Y-12312674D02*
X17571265Y-12303150D01*
X17571265Y-12303150D02*
X17609360Y-12303150D01*
X17609360Y-12303150D02*
X17628408Y-12312674D01*
X17628408Y-12312674D02*
X17637932Y-12331722D01*
X17637932Y-12331722D02*
X17637932Y-12350769D01*
X17637932Y-12350769D02*
X17542694Y-12369817D01*
X17714122Y-12426960D02*
X17733170Y-12436484D01*
X17733170Y-12436484D02*
X17771265Y-12436484D01*
X17771265Y-12436484D02*
X17790313Y-12426960D01*
X17790313Y-12426960D02*
X17799837Y-12407912D01*
X17799837Y-12407912D02*
X17799837Y-12398388D01*
X17799837Y-12398388D02*
X17790313Y-12379341D01*
X17790313Y-12379341D02*
X17771265Y-12369817D01*
X17771265Y-12369817D02*
X17742694Y-12369817D01*
X17742694Y-12369817D02*
X17723646Y-12360293D01*
X17723646Y-12360293D02*
X17714122Y-12341246D01*
X17714122Y-12341246D02*
X17714122Y-12331722D01*
X17714122Y-12331722D02*
X17723646Y-12312674D01*
X17723646Y-12312674D02*
X17742694Y-12303150D01*
X17742694Y-12303150D02*
X17771265Y-12303150D01*
X17771265Y-12303150D02*
X17790313Y-12312674D01*
X17866503Y-12512674D02*
X17876027Y-12503150D01*
X17876027Y-12503150D02*
X17895075Y-12474579D01*
X17895075Y-12474579D02*
X17904598Y-12455531D01*
X17904598Y-12455531D02*
X17914122Y-12426960D01*
X17914122Y-12426960D02*
X17923646Y-12379341D01*
X17923646Y-12379341D02*
X17923646Y-12341246D01*
X17923646Y-12341246D02*
X17914122Y-12293627D01*
X17914122Y-12293627D02*
X17904598Y-12265055D01*
X17904598Y-12265055D02*
X17895075Y-12246008D01*
X17895075Y-12246008D02*
X17876027Y-12217436D01*
X17876027Y-12217436D02*
X17866503Y-12207912D01*
D10*
X13091440Y-12609000D02*
G75*
G02*
X12991440Y-12609000I-50000J0D01*
G01*
X12991440Y-12609000D02*
G75*
G02*
X13091440Y-12609000I50000J0D01*
G01*
D11*
X13456979Y-12700484D02*
X13342693Y-12700484D01*
X13399836Y-12700484D02*
X13399836Y-12500484D01*
X13399836Y-12500484D02*
X13380788Y-12529055D01*
X13380788Y-12529055D02*
X13361741Y-12548103D01*
X13361741Y-12548103D02*
X13342693Y-12557627D01*
X13542693Y-12681436D02*
X13552217Y-12690960D01*
X13552217Y-12690960D02*
X13542693Y-12700484D01*
X13542693Y-12700484D02*
X13533169Y-12690960D01*
X13533169Y-12690960D02*
X13542693Y-12681436D01*
X13542693Y-12681436D02*
X13542693Y-12700484D01*
X13676026Y-12500484D02*
X13695074Y-12500484D01*
X13695074Y-12500484D02*
X13714122Y-12510008D01*
X13714122Y-12510008D02*
X13723646Y-12519531D01*
X13723646Y-12519531D02*
X13733169Y-12538579D01*
X13733169Y-12538579D02*
X13742693Y-12576674D01*
X13742693Y-12576674D02*
X13742693Y-12624293D01*
X13742693Y-12624293D02*
X13733169Y-12662388D01*
X13733169Y-12662388D02*
X13723646Y-12681436D01*
X13723646Y-12681436D02*
X13714122Y-12690960D01*
X13714122Y-12690960D02*
X13695074Y-12700484D01*
X13695074Y-12700484D02*
X13676026Y-12700484D01*
X13676026Y-12700484D02*
X13656979Y-12690960D01*
X13656979Y-12690960D02*
X13647455Y-12681436D01*
X13647455Y-12681436D02*
X13637931Y-12662388D01*
X13637931Y-12662388D02*
X13628407Y-12624293D01*
X13628407Y-12624293D02*
X13628407Y-12576674D01*
X13628407Y-12576674D02*
X13637931Y-12538579D01*
X13637931Y-12538579D02*
X13647455Y-12519531D01*
X13647455Y-12519531D02*
X13656979Y-12510008D01*
X13656979Y-12510008D02*
X13676026Y-12500484D01*
X13866503Y-12500484D02*
X13885550Y-12500484D01*
X13885550Y-12500484D02*
X13904598Y-12510008D01*
X13904598Y-12510008D02*
X13914122Y-12519531D01*
X13914122Y-12519531D02*
X13923646Y-12538579D01*
X13923646Y-12538579D02*
X13933169Y-12576674D01*
X13933169Y-12576674D02*
X13933169Y-12624293D01*
X13933169Y-12624293D02*
X13923646Y-12662388D01*
X13923646Y-12662388D02*
X13914122Y-12681436D01*
X13914122Y-12681436D02*
X13904598Y-12690960D01*
X13904598Y-12690960D02*
X13885550Y-12700484D01*
X13885550Y-12700484D02*
X13866503Y-12700484D01*
X13866503Y-12700484D02*
X13847455Y-12690960D01*
X13847455Y-12690960D02*
X13837931Y-12681436D01*
X13837931Y-12681436D02*
X13828407Y-12662388D01*
X13828407Y-12662388D02*
X13818884Y-12624293D01*
X13818884Y-12624293D02*
X13818884Y-12576674D01*
X13818884Y-12576674D02*
X13828407Y-12538579D01*
X13828407Y-12538579D02*
X13837931Y-12519531D01*
X13837931Y-12519531D02*
X13847455Y-12510008D01*
X13847455Y-12510008D02*
X13866503Y-12500484D01*
X14056979Y-12500484D02*
X14076027Y-12500484D01*
X14076027Y-12500484D02*
X14095074Y-12510008D01*
X14095074Y-12510008D02*
X14104598Y-12519531D01*
X14104598Y-12519531D02*
X14114122Y-12538579D01*
X14114122Y-12538579D02*
X14123646Y-12576674D01*
X14123646Y-12576674D02*
X14123646Y-12624293D01*
X14123646Y-12624293D02*
X14114122Y-12662388D01*
X14114122Y-12662388D02*
X14104598Y-12681436D01*
X14104598Y-12681436D02*
X14095074Y-12690960D01*
X14095074Y-12690960D02*
X14076027Y-12700484D01*
X14076027Y-12700484D02*
X14056979Y-12700484D01*
X14056979Y-12700484D02*
X14037931Y-12690960D01*
X14037931Y-12690960D02*
X14028407Y-12681436D01*
X14028407Y-12681436D02*
X14018884Y-12662388D01*
X14018884Y-12662388D02*
X14009360Y-12624293D01*
X14009360Y-12624293D02*
X14009360Y-12576674D01*
X14009360Y-12576674D02*
X14018884Y-12538579D01*
X14018884Y-12538579D02*
X14028407Y-12519531D01*
X14028407Y-12519531D02*
X14037931Y-12510008D01*
X14037931Y-12510008D02*
X14056979Y-12500484D01*
X14209360Y-12700484D02*
X14209360Y-12567150D01*
X14209360Y-12586198D02*
X14218884Y-12576674D01*
X14218884Y-12576674D02*
X14237931Y-12567150D01*
X14237931Y-12567150D02*
X14266503Y-12567150D01*
X14266503Y-12567150D02*
X14285550Y-12576674D01*
X14285550Y-12576674D02*
X14295074Y-12595722D01*
X14295074Y-12595722D02*
X14295074Y-12700484D01*
X14295074Y-12595722D02*
X14304598Y-12576674D01*
X14304598Y-12576674D02*
X14323646Y-12567150D01*
X14323646Y-12567150D02*
X14352217Y-12567150D01*
X14352217Y-12567150D02*
X14371265Y-12576674D01*
X14371265Y-12576674D02*
X14380788Y-12595722D01*
X14380788Y-12595722D02*
X14380788Y-12700484D01*
X14476027Y-12700484D02*
X14476027Y-12567150D01*
X14476027Y-12586198D02*
X14485550Y-12576674D01*
X14485550Y-12576674D02*
X14504598Y-12567150D01*
X14504598Y-12567150D02*
X14533169Y-12567150D01*
X14533169Y-12567150D02*
X14552217Y-12576674D01*
X14552217Y-12576674D02*
X14561741Y-12595722D01*
X14561741Y-12595722D02*
X14561741Y-12700484D01*
X14561741Y-12595722D02*
X14571265Y-12576674D01*
X14571265Y-12576674D02*
X14590312Y-12567150D01*
X14590312Y-12567150D02*
X14618884Y-12567150D01*
X14618884Y-12567150D02*
X14637931Y-12576674D01*
X14637931Y-12576674D02*
X14647455Y-12595722D01*
X14647455Y-12595722D02*
X14647455Y-12700484D01*
X15037931Y-12490960D02*
X14866503Y-12748103D01*
X15295074Y-12500484D02*
X15314122Y-12500484D01*
X15314122Y-12500484D02*
X15333170Y-12510008D01*
X15333170Y-12510008D02*
X15342693Y-12519531D01*
X15342693Y-12519531D02*
X15352217Y-12538579D01*
X15352217Y-12538579D02*
X15361741Y-12576674D01*
X15361741Y-12576674D02*
X15361741Y-12624293D01*
X15361741Y-12624293D02*
X15352217Y-12662388D01*
X15352217Y-12662388D02*
X15342693Y-12681436D01*
X15342693Y-12681436D02*
X15333170Y-12690960D01*
X15333170Y-12690960D02*
X15314122Y-12700484D01*
X15314122Y-12700484D02*
X15295074Y-12700484D01*
X15295074Y-12700484D02*
X15276027Y-12690960D01*
X15276027Y-12690960D02*
X15266503Y-12681436D01*
X15266503Y-12681436D02*
X15256979Y-12662388D01*
X15256979Y-12662388D02*
X15247455Y-12624293D01*
X15247455Y-12624293D02*
X15247455Y-12576674D01*
X15247455Y-12576674D02*
X15256979Y-12538579D01*
X15256979Y-12538579D02*
X15266503Y-12519531D01*
X15266503Y-12519531D02*
X15276027Y-12510008D01*
X15276027Y-12510008D02*
X15295074Y-12500484D01*
X15447455Y-12681436D02*
X15456979Y-12690960D01*
X15456979Y-12690960D02*
X15447455Y-12700484D01*
X15447455Y-12700484D02*
X15437931Y-12690960D01*
X15437931Y-12690960D02*
X15447455Y-12681436D01*
X15447455Y-12681436D02*
X15447455Y-12700484D01*
X15580789Y-12500484D02*
X15599836Y-12500484D01*
X15599836Y-12500484D02*
X15618884Y-12510008D01*
X15618884Y-12510008D02*
X15628408Y-12519531D01*
X15628408Y-12519531D02*
X15637931Y-12538579D01*
X15637931Y-12538579D02*
X15647455Y-12576674D01*
X15647455Y-12576674D02*
X15647455Y-12624293D01*
X15647455Y-12624293D02*
X15637931Y-12662388D01*
X15637931Y-12662388D02*
X15628408Y-12681436D01*
X15628408Y-12681436D02*
X15618884Y-12690960D01*
X15618884Y-12690960D02*
X15599836Y-12700484D01*
X15599836Y-12700484D02*
X15580789Y-12700484D01*
X15580789Y-12700484D02*
X15561741Y-12690960D01*
X15561741Y-12690960D02*
X15552217Y-12681436D01*
X15552217Y-12681436D02*
X15542693Y-12662388D01*
X15542693Y-12662388D02*
X15533170Y-12624293D01*
X15533170Y-12624293D02*
X15533170Y-12576674D01*
X15533170Y-12576674D02*
X15542693Y-12538579D01*
X15542693Y-12538579D02*
X15552217Y-12519531D01*
X15552217Y-12519531D02*
X15561741Y-12510008D01*
X15561741Y-12510008D02*
X15580789Y-12500484D01*
X15714122Y-12500484D02*
X15837931Y-12500484D01*
X15837931Y-12500484D02*
X15771265Y-12576674D01*
X15771265Y-12576674D02*
X15799836Y-12576674D01*
X15799836Y-12576674D02*
X15818884Y-12586198D01*
X15818884Y-12586198D02*
X15828408Y-12595722D01*
X15828408Y-12595722D02*
X15837931Y-12614769D01*
X15837931Y-12614769D02*
X15837931Y-12662388D01*
X15837931Y-12662388D02*
X15828408Y-12681436D01*
X15828408Y-12681436D02*
X15818884Y-12690960D01*
X15818884Y-12690960D02*
X15799836Y-12700484D01*
X15799836Y-12700484D02*
X15742693Y-12700484D01*
X15742693Y-12700484D02*
X15723646Y-12690960D01*
X15723646Y-12690960D02*
X15714122Y-12681436D01*
X15933170Y-12700484D02*
X15971265Y-12700484D01*
X15971265Y-12700484D02*
X15990312Y-12690960D01*
X15990312Y-12690960D02*
X15999836Y-12681436D01*
X15999836Y-12681436D02*
X16018884Y-12652865D01*
X16018884Y-12652865D02*
X16028408Y-12614769D01*
X16028408Y-12614769D02*
X16028408Y-12538579D01*
X16028408Y-12538579D02*
X16018884Y-12519531D01*
X16018884Y-12519531D02*
X16009360Y-12510008D01*
X16009360Y-12510008D02*
X15990312Y-12500484D01*
X15990312Y-12500484D02*
X15952217Y-12500484D01*
X15952217Y-12500484D02*
X15933170Y-12510008D01*
X15933170Y-12510008D02*
X15923646Y-12519531D01*
X15923646Y-12519531D02*
X15914122Y-12538579D01*
X15914122Y-12538579D02*
X15914122Y-12586198D01*
X15914122Y-12586198D02*
X15923646Y-12605246D01*
X15923646Y-12605246D02*
X15933170Y-12614769D01*
X15933170Y-12614769D02*
X15952217Y-12624293D01*
X15952217Y-12624293D02*
X15990312Y-12624293D01*
X15990312Y-12624293D02*
X16009360Y-12614769D01*
X16009360Y-12614769D02*
X16018884Y-12605246D01*
X16018884Y-12605246D02*
X16028408Y-12586198D01*
X16199836Y-12567150D02*
X16199836Y-12700484D01*
X16152217Y-12490960D02*
X16104598Y-12633817D01*
X16104598Y-12633817D02*
X16228408Y-12633817D01*
X16295074Y-12500484D02*
X16295074Y-12538579D01*
X16371265Y-12500484D02*
X16371265Y-12538579D01*
X16666503Y-12776674D02*
X16656979Y-12767150D01*
X16656979Y-12767150D02*
X16637932Y-12738579D01*
X16637932Y-12738579D02*
X16628408Y-12719531D01*
X16628408Y-12719531D02*
X16618884Y-12690960D01*
X16618884Y-12690960D02*
X16609360Y-12643341D01*
X16609360Y-12643341D02*
X16609360Y-12605246D01*
X16609360Y-12605246D02*
X16618884Y-12557627D01*
X16618884Y-12557627D02*
X16628408Y-12529055D01*
X16628408Y-12529055D02*
X16637932Y-12510008D01*
X16637932Y-12510008D02*
X16656979Y-12481436D01*
X16656979Y-12481436D02*
X16666503Y-12471912D01*
X16733170Y-12519531D02*
X16742693Y-12510008D01*
X16742693Y-12510008D02*
X16761741Y-12500484D01*
X16761741Y-12500484D02*
X16809360Y-12500484D01*
X16809360Y-12500484D02*
X16828408Y-12510008D01*
X16828408Y-12510008D02*
X16837932Y-12519531D01*
X16837932Y-12519531D02*
X16847455Y-12538579D01*
X16847455Y-12538579D02*
X16847455Y-12557627D01*
X16847455Y-12557627D02*
X16837932Y-12586198D01*
X16837932Y-12586198D02*
X16723646Y-12700484D01*
X16723646Y-12700484D02*
X16847455Y-12700484D01*
X17018884Y-12567150D02*
X17018884Y-12700484D01*
X16971265Y-12490960D02*
X16923646Y-12633817D01*
X16923646Y-12633817D02*
X17047455Y-12633817D01*
X17276027Y-12700484D02*
X17276027Y-12500484D01*
X17361741Y-12700484D02*
X17361741Y-12595722D01*
X17361741Y-12595722D02*
X17352217Y-12576674D01*
X17352217Y-12576674D02*
X17333170Y-12567150D01*
X17333170Y-12567150D02*
X17304598Y-12567150D01*
X17304598Y-12567150D02*
X17285551Y-12576674D01*
X17285551Y-12576674D02*
X17276027Y-12586198D01*
X17485551Y-12700484D02*
X17466503Y-12690960D01*
X17466503Y-12690960D02*
X17456979Y-12681436D01*
X17456979Y-12681436D02*
X17447456Y-12662388D01*
X17447456Y-12662388D02*
X17447456Y-12605246D01*
X17447456Y-12605246D02*
X17456979Y-12586198D01*
X17456979Y-12586198D02*
X17466503Y-12576674D01*
X17466503Y-12576674D02*
X17485551Y-12567150D01*
X17485551Y-12567150D02*
X17514122Y-12567150D01*
X17514122Y-12567150D02*
X17533170Y-12576674D01*
X17533170Y-12576674D02*
X17542694Y-12586198D01*
X17542694Y-12586198D02*
X17552217Y-12605246D01*
X17552217Y-12605246D02*
X17552217Y-12662388D01*
X17552217Y-12662388D02*
X17542694Y-12681436D01*
X17542694Y-12681436D02*
X17533170Y-12690960D01*
X17533170Y-12690960D02*
X17514122Y-12700484D01*
X17514122Y-12700484D02*
X17485551Y-12700484D01*
X17666503Y-12700484D02*
X17647456Y-12690960D01*
X17647456Y-12690960D02*
X17637932Y-12671912D01*
X17637932Y-12671912D02*
X17637932Y-12500484D01*
X17818884Y-12690960D02*
X17799837Y-12700484D01*
X17799837Y-12700484D02*
X17761741Y-12700484D01*
X17761741Y-12700484D02*
X17742694Y-12690960D01*
X17742694Y-12690960D02*
X17733170Y-12671912D01*
X17733170Y-12671912D02*
X17733170Y-12595722D01*
X17733170Y-12595722D02*
X17742694Y-12576674D01*
X17742694Y-12576674D02*
X17761741Y-12567150D01*
X17761741Y-12567150D02*
X17799837Y-12567150D01*
X17799837Y-12567150D02*
X17818884Y-12576674D01*
X17818884Y-12576674D02*
X17828408Y-12595722D01*
X17828408Y-12595722D02*
X17828408Y-12614769D01*
X17828408Y-12614769D02*
X17733170Y-12633817D01*
X17904598Y-12690960D02*
X17923646Y-12700484D01*
X17923646Y-12700484D02*
X17961741Y-12700484D01*
X17961741Y-12700484D02*
X17980789Y-12690960D01*
X17980789Y-12690960D02*
X17990313Y-12671912D01*
X17990313Y-12671912D02*
X17990313Y-12662388D01*
X17990313Y-12662388D02*
X17980789Y-12643341D01*
X17980789Y-12643341D02*
X17961741Y-12633817D01*
X17961741Y-12633817D02*
X17933170Y-12633817D01*
X17933170Y-12633817D02*
X17914122Y-12624293D01*
X17914122Y-12624293D02*
X17904598Y-12605246D01*
X17904598Y-12605246D02*
X17904598Y-12595722D01*
X17904598Y-12595722D02*
X17914122Y-12576674D01*
X17914122Y-12576674D02*
X17933170Y-12567150D01*
X17933170Y-12567150D02*
X17961741Y-12567150D01*
X17961741Y-12567150D02*
X17980789Y-12576674D01*
X18056979Y-12776674D02*
X18066503Y-12767150D01*
X18066503Y-12767150D02*
X18085551Y-12738579D01*
X18085551Y-12738579D02*
X18095075Y-12719531D01*
X18095075Y-12719531D02*
X18104598Y-12690960D01*
X18104598Y-12690960D02*
X18114122Y-12643341D01*
X18114122Y-12643341D02*
X18114122Y-12605246D01*
X18114122Y-12605246D02*
X18104598Y-12557627D01*
X18104598Y-12557627D02*
X18095075Y-12529055D01*
X18095075Y-12529055D02*
X18085551Y-12510008D01*
X18085551Y-12510008D02*
X18066503Y-12481436D01*
X18066503Y-12481436D02*
X18056979Y-12471912D01*
M02*
