M48
; DRILL file {KiCad 9.0.0} date 2025-03-05T17:01:48+1300
; FORMAT={-:-/ absolute / inch / decimal}
; #@! TF.CreationDate,2025-03-05T17:01:48+13:00
; #@! TF.GenerationSoftware,Kicad,Pcbnew,9.0.0
; #@! TF.FileFunction,Plated,1,2,PTH
FMAT,2
INCH
; #@! TA.AperFunction,Plated,PTH,ViaDrill
T1C0.0118
; #@! TA.AperFunction,Plated,PTH,ComponentDrill
T2C0.0394
%
G90
G05
T1
X5.9443Y-4.2334
X5.9449Y-4.1339
X5.9482Y-3.8241
X5.9491Y-3.7591
X6.0856Y-3.7582
X6.0866Y-3.826
X6.0904Y-4.2328
X6.0925Y-4.1339
T2
X5.7124Y-3.4163
X5.7124Y-3.5163
X5.7124Y-3.6163
X5.7124Y-3.7163
X5.7124Y-3.8163
X5.7124Y-3.9163
X5.7124Y-4.0163
X5.7124Y-4.1163
X5.7124Y-4.2163
X5.7124Y-4.3163
X5.7124Y-4.4163
X5.7124Y-4.5163
X6.3124Y-3.4167
X6.3124Y-3.5167
X6.3124Y-3.6167
X6.3124Y-3.7167
X6.3124Y-3.8167
X6.3124Y-3.9167
X6.3124Y-4.0167
X6.3124Y-4.1167
X6.3124Y-4.2167
X6.3124Y-4.3167
X6.3124Y-4.4167
X6.3124Y-4.5167
M30
