%TF.GenerationSoftware,KiCad,Pcbnew,9.0.0*%
%TF.CreationDate,2025-03-05T17:01:43+13:00*%
%TF.ProjectId,SOIC-24_to_DIP-24_adapter,534f4943-2d32-4345-9f74-6f5f4449502d,rev?*%
%TF.SameCoordinates,Original*%
%TF.FileFunction,Copper,L1,Top*%
%TF.FilePolarity,Positive*%
%FSLAX46Y46*%
G04 Gerber Fmt 4.6, Leading zero omitted, Abs format (unit mm)*
G04 Created by KiCad (PCBNEW 9.0.0) date 2025-03-05 17:01:43*
%MOMM*%
%LPD*%
G01*
G04 APERTURE LIST*
%TA.AperFunction,SMDPad,CuDef*%
%ADD10R,1.250000X0.650000*%
%TD*%
%TA.AperFunction,ComponentPad*%
%ADD11R,1.700000X1.700000*%
%TD*%
%TA.AperFunction,ComponentPad*%
%ADD12O,1.700000X1.700000*%
%TD*%
%TA.AperFunction,ViaPad*%
%ADD13C,0.600000*%
%TD*%
%TA.AperFunction,Conductor*%
%ADD14C,0.250000*%
%TD*%
G04 APERTURE END LIST*
D10*
%TO.P,SOIC-24,1,A7*%
%TO.N,Net-(IC1-A7)*%
X149039402Y-93765000D03*
%TO.P,SOIC-24,2,A6*%
%TO.N,Net-(IC1-A6)*%
X149039402Y-95035000D03*
%TO.P,SOIC-24,3,A5*%
%TO.N,Net-(IC1-A5)*%
X149039402Y-96305000D03*
%TO.P,SOIC-24,4,A4*%
%TO.N,Net-(IC1-A4)*%
X149039402Y-97575000D03*
%TO.P,SOIC-24,5,A3*%
%TO.N,Net-(IC1-A3)*%
X149039402Y-98845000D03*
%TO.P,SOIC-24,6,A2*%
%TO.N,Net-(IC1-A2)*%
X149039402Y-100115000D03*
%TO.P,SOIC-24,7,A1*%
%TO.N,Net-(IC1-A1)*%
X149039402Y-101385000D03*
%TO.P,SOIC-24,8,A0*%
%TO.N,Net-(IC1-A0)*%
X149039402Y-102655000D03*
%TO.P,SOIC-24,9,I/O_0*%
%TO.N,Net-(IC1-I{slash}O_0)*%
X149039402Y-103925000D03*
%TO.P,SOIC-24,10,I/O_1*%
%TO.N,Net-(IC1-I{slash}O_1)*%
X149039402Y-105195000D03*
%TO.P,SOIC-24,11,I/O_2*%
%TO.N,Net-(IC1-I{slash}O_2)*%
X149039402Y-106465000D03*
%TO.P,SOIC-24,12,GND*%
%TO.N,GND*%
X149039402Y-107735000D03*
%TO.P,SOIC-24,13,I/O_3*%
%TO.N,Net-(IC1-I{slash}O_3)*%
X156639402Y-107735000D03*
%TO.P,SOIC-24,14,I/O_4*%
%TO.N,Net-(IC1-I{slash}O_4)*%
X156639402Y-106465000D03*
%TO.P,SOIC-24,15,I/O_5*%
%TO.N,Net-(IC1-I{slash}O_5)*%
X156639402Y-105195000D03*
%TO.P,SOIC-24,16,I/O_6*%
%TO.N,Net-(IC1-I{slash}O_6)*%
X156639402Y-103925000D03*
%TO.P,SOIC-24,17,I/O_7*%
%TO.N,Net-(IC1-I{slash}O_7)*%
X156639402Y-102655000D03*
%TO.P,SOIC-24,18,~{CS}*%
%TO.N,Net-(IC1-~{CS})*%
X156639402Y-101385000D03*
%TO.P,SOIC-24,19,A10*%
%TO.N,Net-(IC1-A10)*%
X156639402Y-100115000D03*
%TO.P,SOIC-24,20,~{OE}*%
%TO.N,Net-(IC1-~{OE})*%
X156639402Y-98845000D03*
%TO.P,SOIC-24,21,~{WE}*%
%TO.N,Net-(IC1-~{WE})*%
X156639402Y-97575000D03*
%TO.P,SOIC-24,22,A9*%
%TO.N,Net-(IC1-A9)*%
X156639402Y-96305000D03*
%TO.P,SOIC-24,23,A8*%
%TO.N,Net-(IC1-A8)*%
X156639402Y-95035000D03*
%TO.P,SOIC-24,24,VCC*%
%TO.N,VCC*%
X156639402Y-93765000D03*
%TD*%
D11*
%TO.P,J1,1,Pin_1*%
%TO.N,Net-(IC1-A7)*%
X145094000Y-86775000D03*
D12*
%TO.P,J1,2,Pin_2*%
%TO.N,Net-(IC1-A6)*%
X145094000Y-89315000D03*
%TO.P,J1,3,Pin_3*%
%TO.N,Net-(IC1-A5)*%
X145094000Y-91855000D03*
%TO.P,J1,4,Pin_4*%
%TO.N,Net-(IC1-A4)*%
X145094000Y-94395000D03*
%TO.P,J1,5,Pin_5*%
%TO.N,Net-(IC1-A3)*%
X145094000Y-96935000D03*
%TO.P,J1,6,Pin_6*%
%TO.N,Net-(IC1-A2)*%
X145094000Y-99475000D03*
%TO.P,J1,7,Pin_7*%
%TO.N,Net-(IC1-A1)*%
X145094000Y-102015000D03*
%TO.P,J1,8,Pin_8*%
%TO.N,Net-(IC1-A0)*%
X145094000Y-104555000D03*
%TO.P,J1,9,Pin_9*%
%TO.N,Net-(IC1-I{slash}O_0)*%
X145094000Y-107095000D03*
%TO.P,J1,10,Pin_10*%
%TO.N,Net-(IC1-I{slash}O_1)*%
X145094000Y-109635000D03*
%TO.P,J1,11,Pin_11*%
%TO.N,Net-(IC1-I{slash}O_2)*%
X145094000Y-112175000D03*
%TO.P,J1,12,Pin_12*%
%TO.N,GND*%
X145094000Y-114715000D03*
%TD*%
D11*
%TO.P,J2,1,Pin_1*%
%TO.N,Net-(IC1-I{slash}O_3)*%
X160335360Y-114725000D03*
D12*
%TO.P,J2,2,Pin_2*%
%TO.N,Net-(IC1-I{slash}O_4)*%
X160335360Y-112185000D03*
%TO.P,J2,3,Pin_3*%
%TO.N,Net-(IC1-I{slash}O_5)*%
X160335360Y-109645000D03*
%TO.P,J2,4,Pin_4*%
%TO.N,Net-(IC1-I{slash}O_6)*%
X160335360Y-107105000D03*
%TO.P,J2,5,Pin_5*%
%TO.N,Net-(IC1-I{slash}O_7)*%
X160335360Y-104565000D03*
%TO.P,J2,6,Pin_6*%
%TO.N,Net-(IC1-~{CS})*%
X160335360Y-102025000D03*
%TO.P,J2,7,Pin_7*%
%TO.N,Net-(IC1-A10)*%
X160335360Y-99485000D03*
%TO.P,J2,8,Pin_8*%
%TO.N,Net-(IC1-~{OE})*%
X160335360Y-96945000D03*
%TO.P,J2,9,Pin_9*%
%TO.N,Net-(IC1-~{WE})*%
X160335360Y-94405000D03*
%TO.P,J2,10,Pin_10*%
%TO.N,Net-(IC1-A9)*%
X160335360Y-91865000D03*
%TO.P,J2,11,Pin_11*%
%TO.N,Net-(IC1-A8)*%
X160335360Y-89325000D03*
%TO.P,J2,12,Pin_12*%
%TO.N,VCC*%
X160335360Y-86785000D03*
%TD*%
D13*
%TO.N,Net-(IC1-A6)*%
X151107050Y-95481297D03*
%TO.N,Net-(IC1-A4)*%
X151083463Y-97132426D03*
%TO.N,Net-(IC1-I{slash}O_0)*%
X151000000Y-105000000D03*
%TO.N,Net-(IC1-I{slash}O_2)*%
X150985000Y-107527640D03*
%TO.N,Net-(IC1-I{slash}O_4)*%
X154695000Y-107513684D03*
%TO.N,Net-(IC1-I{slash}O_6)*%
X154750000Y-105000000D03*
%TO.N,Net-(IC1-~{WE})*%
X154600000Y-97179601D03*
%TO.N,Net-(IC1-A8)*%
X154574422Y-95457709D03*
%TD*%
D14*
%TO.N,Net-(IC1-A7)*%
X149039402Y-90114402D02*
X149039402Y-93765000D01*
X145700000Y-86775000D02*
X149039402Y-90114402D01*
%TO.N,Net-(IC1-A6)*%
X150660753Y-95035000D02*
X151107050Y-95481297D01*
X149039402Y-95035000D02*
X150660753Y-95035000D01*
%TO.N,Net-(IC1-A5)*%
X149039402Y-96305000D02*
X148709402Y-96305000D01*
X147427390Y-95022988D02*
X147427390Y-93582390D01*
X148709402Y-96305000D02*
X147427390Y-95022988D01*
X147427390Y-93582390D02*
X145700000Y-91855000D01*
%TO.N,Net-(IC1-A4)*%
X149039402Y-97575000D02*
X150640889Y-97575000D01*
X150640889Y-97575000D02*
X151083463Y-97132426D01*
%TO.N,Net-(IC1-A3)*%
X147610000Y-98845000D02*
X149039402Y-98845000D01*
X145700000Y-96935000D02*
X147610000Y-98845000D01*
%TO.N,Net-(IC1-A2)*%
X145700000Y-99475000D02*
X146340000Y-100115000D01*
X146340000Y-100115000D02*
X149039402Y-100115000D01*
%TO.N,Net-(IC1-A1)*%
X146330000Y-101385000D02*
X149039402Y-101385000D01*
X145700000Y-102015000D02*
X146330000Y-101385000D01*
%TO.N,Net-(IC1-A0)*%
X145700000Y-104555000D02*
X147600000Y-102655000D01*
X147600000Y-102655000D02*
X149039402Y-102655000D01*
%TO.N,Net-(IC1-I{slash}O_0)*%
X149925000Y-103925000D02*
X151000000Y-105000000D01*
X149039402Y-103925000D02*
X149925000Y-103925000D01*
%TO.N,Net-(IC1-I{slash}O_1)*%
X147568916Y-106365486D02*
X147568916Y-107766084D01*
X147568916Y-107766084D02*
X145700000Y-109635000D01*
X149039402Y-105195000D02*
X148739402Y-105195000D01*
X148739402Y-105195000D02*
X147568916Y-106365486D01*
%TO.N,Net-(IC1-I{slash}O_2)*%
X150984894Y-107527640D02*
X149922254Y-106465000D01*
X149922254Y-106465000D02*
X149039402Y-106465000D01*
%TO.N,GND*%
X149039402Y-111375598D02*
X145700000Y-114715000D01*
X149039402Y-107735000D02*
X149039402Y-111375598D01*
%TO.N,VCC*%
X156639402Y-93765000D02*
X156639402Y-90145598D01*
X156639402Y-90145598D02*
X160000000Y-86785000D01*
%TO.N,Net-(IC1-I{slash}O_3)*%
X156639402Y-111364402D02*
X160000000Y-114725000D01*
X156639402Y-107735000D02*
X156639402Y-111364402D01*
%TO.N,Net-(IC1-I{slash}O_4)*%
X156639402Y-106465000D02*
X155743684Y-106465000D01*
X155743684Y-106465000D02*
X154695000Y-107513684D01*
%TO.N,Net-(IC1-I{slash}O_5)*%
X156639402Y-105195000D02*
X156969402Y-105195000D01*
X158206907Y-106432505D02*
X158206907Y-107851907D01*
X158206907Y-107851907D02*
X160000000Y-109645000D01*
X156969402Y-105195000D02*
X158206907Y-106432505D01*
%TO.N,Net-(IC1-I{slash}O_6)*%
X155825000Y-103925000D02*
X154750000Y-105000000D01*
X156639402Y-103925000D02*
X155825000Y-103925000D01*
%TO.N,Net-(IC1-I{slash}O_7)*%
X158090000Y-102655000D02*
X156639402Y-102655000D01*
X160000000Y-104565000D02*
X158090000Y-102655000D01*
%TO.N,Net-(IC1-~{CS})*%
X159360000Y-101385000D02*
X160000000Y-102025000D01*
X156639402Y-101385000D02*
X159360000Y-101385000D01*
%TO.N,Net-(IC1-A10)*%
X156639402Y-100115000D02*
X159370000Y-100115000D01*
X159370000Y-100115000D02*
X160000000Y-99485000D01*
%TO.N,Net-(IC1-~{OE})*%
X158100000Y-98845000D02*
X160000000Y-96945000D01*
X156639402Y-98845000D02*
X158100000Y-98845000D01*
%TO.N,Net-(IC1-~{WE})*%
X154922646Y-97575000D02*
X154527247Y-97179601D01*
X156639402Y-97575000D02*
X154995399Y-97575000D01*
X156639402Y-97575000D02*
X154922646Y-97575000D01*
X154995399Y-97575000D02*
X154600000Y-97179601D01*
%TO.N,Net-(IC1-A9)*%
X156939402Y-96305000D02*
X158206907Y-95037495D01*
X156639402Y-96305000D02*
X156939402Y-96305000D01*
X158206907Y-93658093D02*
X160000000Y-91865000D01*
X158206907Y-95037495D02*
X158206907Y-93658093D01*
%TO.N,Net-(IC1-A8)*%
X154997131Y-95035000D02*
X154574422Y-95457709D01*
X156639402Y-95035000D02*
X154997131Y-95035000D01*
%TD*%
M02*
