%TF.GenerationSoftware,KiCad,Pcbnew,9.0.0*%
%TF.CreationDate,2025-03-05T17:01:43+13:00*%
%TF.ProjectId,SOIC-24_to_DIP-24_adapter,534f4943-2d32-4345-9f74-6f5f4449502d,rev?*%
%TF.SameCoordinates,Original*%
%TF.FileFunction,Copper,L2,Bot*%
%TF.FilePolarity,Positive*%
%FSLAX46Y46*%
G04 Gerber Fmt 4.6, Leading zero omitted, Abs format (unit mm)*
G04 Created by KiCad (PCBNEW 9.0.0) date 2025-03-05 17:01:43*
%MOMM*%
%LPD*%
G01*
G04 APERTURE LIST*
%TA.AperFunction,ComponentPad*%
%ADD10R,1.700000X1.700000*%
%TD*%
%TA.AperFunction,ComponentPad*%
%ADD11O,1.700000X1.700000*%
%TD*%
%TA.AperFunction,ViaPad*%
%ADD12C,0.600000*%
%TD*%
%TA.AperFunction,Conductor*%
%ADD13C,0.250000*%
%TD*%
G04 APERTURE END LIST*
D10*
%TO.P,J1,1,Pin_1*%
%TO.N,Net-(IC1-A7)*%
X145094000Y-86775000D03*
D11*
%TO.P,J1,2,Pin_2*%
%TO.N,Net-(IC1-A6)*%
X145094000Y-89315000D03*
%TO.P,J1,3,Pin_3*%
%TO.N,Net-(IC1-A5)*%
X145094000Y-91855000D03*
%TO.P,J1,4,Pin_4*%
%TO.N,Net-(IC1-A4)*%
X145094000Y-94395000D03*
%TO.P,J1,5,Pin_5*%
%TO.N,Net-(IC1-A3)*%
X145094000Y-96935000D03*
%TO.P,J1,6,Pin_6*%
%TO.N,Net-(IC1-A2)*%
X145094000Y-99475000D03*
%TO.P,J1,7,Pin_7*%
%TO.N,Net-(IC1-A1)*%
X145094000Y-102015000D03*
%TO.P,J1,8,Pin_8*%
%TO.N,Net-(IC1-A0)*%
X145094000Y-104555000D03*
%TO.P,J1,9,Pin_9*%
%TO.N,Net-(IC1-I{slash}O_0)*%
X145094000Y-107095000D03*
%TO.P,J1,10,Pin_10*%
%TO.N,Net-(IC1-I{slash}O_1)*%
X145094000Y-109635000D03*
%TO.P,J1,11,Pin_11*%
%TO.N,Net-(IC1-I{slash}O_2)*%
X145094000Y-112175000D03*
%TO.P,J1,12,Pin_12*%
%TO.N,GND*%
X145094000Y-114715000D03*
%TD*%
D10*
%TO.P,J2,1,Pin_1*%
%TO.N,Net-(IC1-I{slash}O_3)*%
X160335360Y-114725000D03*
D11*
%TO.P,J2,2,Pin_2*%
%TO.N,Net-(IC1-I{slash}O_4)*%
X160335360Y-112185000D03*
%TO.P,J2,3,Pin_3*%
%TO.N,Net-(IC1-I{slash}O_5)*%
X160335360Y-109645000D03*
%TO.P,J2,4,Pin_4*%
%TO.N,Net-(IC1-I{slash}O_6)*%
X160335360Y-107105000D03*
%TO.P,J2,5,Pin_5*%
%TO.N,Net-(IC1-I{slash}O_7)*%
X160335360Y-104565000D03*
%TO.P,J2,6,Pin_6*%
%TO.N,Net-(IC1-~{CS})*%
X160335360Y-102025000D03*
%TO.P,J2,7,Pin_7*%
%TO.N,Net-(IC1-A10)*%
X160335360Y-99485000D03*
%TO.P,J2,8,Pin_8*%
%TO.N,Net-(IC1-~{OE})*%
X160335360Y-96945000D03*
%TO.P,J2,9,Pin_9*%
%TO.N,Net-(IC1-~{WE})*%
X160335360Y-94405000D03*
%TO.P,J2,10,Pin_10*%
%TO.N,Net-(IC1-A9)*%
X160335360Y-91865000D03*
%TO.P,J2,11,Pin_11*%
%TO.N,Net-(IC1-A8)*%
X160335360Y-89325000D03*
%TO.P,J2,12,Pin_12*%
%TO.N,VCC*%
X160335360Y-86785000D03*
%TD*%
D12*
%TO.N,Net-(IC1-A6)*%
X151107050Y-95481297D03*
%TO.N,Net-(IC1-A4)*%
X151083463Y-97132426D03*
%TO.N,Net-(IC1-I{slash}O_0)*%
X151000000Y-105000000D03*
%TO.N,Net-(IC1-I{slash}O_2)*%
X150985000Y-107527640D03*
%TO.N,Net-(IC1-I{slash}O_4)*%
X154695000Y-107513684D03*
%TO.N,Net-(IC1-I{slash}O_6)*%
X154750000Y-105000000D03*
%TO.N,Net-(IC1-~{WE})*%
X154600000Y-97179601D03*
%TO.N,Net-(IC1-A8)*%
X154574422Y-95457709D03*
%TD*%
D13*
%TO.N,Net-(IC1-A6)*%
X151107050Y-95481297D02*
X151107050Y-94722050D01*
X151107050Y-94722050D02*
X145700000Y-89315000D01*
%TO.N,Net-(IC1-A4)*%
X148437426Y-97132426D02*
X145700000Y-94395000D01*
X151083463Y-97132426D02*
X148437426Y-97132426D01*
%TO.N,Net-(IC1-I{slash}O_0)*%
X147189000Y-105000000D02*
X145094000Y-107095000D01*
X151000000Y-105000000D02*
X147189000Y-105000000D01*
%TO.N,Net-(IC1-I{slash}O_2)*%
X146337534Y-112175000D02*
X145094000Y-112175000D01*
X146337534Y-112175000D02*
X150984894Y-107527640D01*
%TO.N,Net-(IC1-I{slash}O_4)*%
X159366316Y-112185000D02*
X160335360Y-112185000D01*
X154695000Y-107513684D02*
X159366316Y-112185000D01*
%TO.N,Net-(IC1-I{slash}O_6)*%
X160335360Y-107105000D02*
X158230360Y-105000000D01*
X158230360Y-105000000D02*
X154750000Y-105000000D01*
%TO.N,Net-(IC1-~{WE})*%
X154527247Y-97179601D02*
X157225399Y-97179601D01*
X157225399Y-97179601D02*
X160000000Y-94405000D01*
X157225399Y-97179601D02*
X154600000Y-97179601D01*
%TO.N,Net-(IC1-A8)*%
X154574422Y-94750578D02*
X160000000Y-89325000D01*
X154574422Y-95457709D02*
X154574422Y-94750578D01*
%TD*%
M02*
