%TF.GenerationSoftware,KiCad,Pcbnew,9.0.0*%
%TF.CreationDate,2025-03-05T17:01:44+13:00*%
%TF.ProjectId,SOIC-24_to_DIP-24_adapter,534f4943-2d32-4345-9f74-6f5f4449502d,rev?*%
%TF.SameCoordinates,Original*%
%TF.FileFunction,Soldermask,Top*%
%TF.FilePolarity,Negative*%
%FSLAX46Y46*%
G04 Gerber Fmt 4.6, Leading zero omitted, Abs format (unit mm)*
G04 Created by KiCad (PCBNEW 9.0.0) date 2025-03-05 17:01:44*
%MOMM*%
%LPD*%
G01*
G04 APERTURE LIST*
%ADD10R,1.250000X0.650000*%
%ADD11R,1.700000X1.700000*%
%ADD12O,1.700000X1.700000*%
G04 APERTURE END LIST*
D10*
%TO.C,SOIC-24*%
X149039402Y-93765000D03*
X149039402Y-95035000D03*
X149039402Y-96305000D03*
X149039402Y-97575000D03*
X149039402Y-98845000D03*
X149039402Y-100115000D03*
X149039402Y-101385000D03*
X149039402Y-102655000D03*
X149039402Y-103925000D03*
X149039402Y-105195000D03*
X149039402Y-106465000D03*
X149039402Y-107735000D03*
X156639402Y-107735000D03*
X156639402Y-106465000D03*
X156639402Y-105195000D03*
X156639402Y-103925000D03*
X156639402Y-102655000D03*
X156639402Y-101385000D03*
X156639402Y-100115000D03*
X156639402Y-98845000D03*
X156639402Y-97575000D03*
X156639402Y-96305000D03*
X156639402Y-95035000D03*
X156639402Y-93765000D03*
%TD*%
D11*
%TO.C,J1*%
X145094000Y-86775000D03*
D12*
X145094000Y-89315000D03*
X145094000Y-91855000D03*
X145094000Y-94395000D03*
X145094000Y-96935000D03*
X145094000Y-99475000D03*
X145094000Y-102015000D03*
X145094000Y-104555000D03*
X145094000Y-107095000D03*
X145094000Y-109635000D03*
X145094000Y-112175000D03*
X145094000Y-114715000D03*
%TD*%
D11*
%TO.C,J2*%
X160335360Y-114725000D03*
D12*
X160335360Y-112185000D03*
X160335360Y-109645000D03*
X160335360Y-107105000D03*
X160335360Y-104565000D03*
X160335360Y-102025000D03*
X160335360Y-99485000D03*
X160335360Y-96945000D03*
X160335360Y-94405000D03*
X160335360Y-91865000D03*
X160335360Y-89325000D03*
X160335360Y-86785000D03*
%TD*%
M02*
